<?xml version="1.0" ?><!DOCTYPE svg  PUBLIC '-//W3C//DTD SVG 1.1//EN'  'http://www.w3.org/Graphics/SVG/1.1/DTD/svg11.dtd'><svg enable-background="new 0 0 256 256" id="Layer_1" version="1.1" viewBox="0 0 256 256" xml:space="preserve" xmlns="http://www.w3.org/2000/svg" xmlns:xlink="http://www.w3.org/1999/xlink"><g><circle cx="128" cy="128" fill="#EC6957" r="127"/><path d="M190.9,96c-1.1,0-2.2,0.1-3.2,0.2c0-0.1,0-0.1,0-0.2c0-17.3-14-31.2-31.2-31.2c-5,0-9.8,1.2-14,3.4   c-7.2-13-21-21.8-36.8-21.8c-23.2,0-42.1,18.8-42.1,42.1c0,1.4,0.1,2.8,0.2,4.2c-15.4,1.6-27.4,14.6-27.4,30.5   c0,16.9,13.7,30.6,30.6,30.6c3.5,0,6.8-0.6,9.9-1.7c5.6,13.2,18.7,22.5,33.9,22.5c13.5,0,25.3-7.3,31.7-18.1   c3.3,1.9,7.1,2.9,11.2,2.9c8.5,0,15.8-4.6,19.8-11.4c4.8,3.6,10.8,5.8,17.3,5.8c15.9,0,28.8-12.9,28.8-28.8   C219.7,108.9,206.8,96,190.9,96z" fill="#FFFFFF"/><path d="M86.3,205.2L86.3,205.2c-8.2-7.3-8.5-20.7-0.7-29.7c20.1-23.1,40.2-46.3,60.2-69.4   c14.3,2.5,25.7,12.3,30.2,26.2c-20.1,23.1-40.2,46.3-60.2,69.4C108,210.7,94.8,212.3,86.3,205.2z" fill="#0B2C48"/><circle cx="166.5" cy="131.6" fill="#E65336" r="2.4"/><rect fill="#E65336" height="4.8" transform="matrix(0.7554 0.6552 -0.6552 0.7554 113.0063 -69.329)" width="8.9" x="144.9" y="114.3"/><rect fill="#BBC2C6" height="3.2" transform="matrix(0.7554 0.6552 -0.6552 0.7554 116.9389 -62.0433)" width="6.4" x="138.4" y="124"/><rect fill="#BBC2C6" height="3.2" transform="matrix(0.7554 0.6552 -0.6552 0.7554 123.319 -65.5213)" width="6.4" x="146.2" y="130.8"/><rect fill="#BBC2C6" height="3.2" transform="matrix(0.7554 0.6552 -0.6552 0.7554 129.7013 -68.9996)" width="6.4" x="154.1" y="137.7"/><rect fill="#BBC2C6" height="3.2" transform="matrix(0.7554 0.6552 -0.6552 0.7554 119.3648 -57.5932)" width="6.4" x="133.6" y="129.5"/><rect fill="#BBC2C6" height="3.2" transform="matrix(0.7554 0.6552 -0.6552 0.7554 125.7453 -61.0713)" width="6.4" x="141.5" y="136.3"/><rect fill="#BBC2C6" height="3.2" transform="matrix(0.7554 0.6552 -0.6552 0.7554 132.125 -64.5493)" width="6.4" x="149.3" y="143.1"/><rect fill="#BBC2C6" height="3.2" transform="matrix(0.7554 0.6552 -0.6552 0.7554 121.7907 -53.1432)" width="6.4" x="128.9" y="135"/><rect fill="#BBC2C6" height="3.2" transform="matrix(0.7554 0.6552 -0.6552 0.7554 128.1708 -56.6213)" width="6.4" x="136.7" y="141.8"/><rect fill="#BBC2C6" height="3.2" transform="matrix(0.7554 0.6552 -0.6552 0.7554 134.5513 -60.0993)" width="6.4" x="144.6" y="148.6"/><rect fill="#BBC2C6" height="3.2" transform="matrix(0.7554 0.6552 -0.6552 0.7554 124.2166 -48.6932)" width="6.4" x="124.1" y="140.5"/><rect fill="#BBC2C6" height="3.2" transform="matrix(0.7554 0.6552 -0.6552 0.7554 130.5966 -52.1712)" width="6.4" x="132" y="147.3"/><rect fill="#BBC2C6" height="3.2" transform="matrix(0.7554 0.6552 -0.6552 0.7554 136.9793 -55.6493)" width="6.4" x="139.8" y="154.1"/><circle cx="119" cy="166.6" fill="#BBC2C6" r="3.5"/><path d="M119,158c2,0,4,0.7,5.6,2.1c1.6,1.4,2.6,3.3,2.9,5.2l4.3-0.3c-0.4-3.1-1.8-6-4.4-8.2   c-2.5-2.2-5.6-3.2-8.7-3.1L119,158z" fill="#BBC2C6"/><path d="M131.9,166.3l-4.3,0.3c0,2-0.7,4-2.1,5.6c-1.4,1.6-3.3,2.6-5.2,2.9l0.3,4.3c3.1-0.4,6-1.8,8.2-4.3   C130.9,172.5,131.9,169.4,131.9,166.3z" fill="#BBC2C6"/><path d="M110.4,166.5c0-2,0.7-4,2.1-5.6c1.4-1.6,3.3-2.6,5.2-2.9l-0.3-4.3c-3.1,0.4-6,1.8-8.2,4.3   c-2.2,2.5-3.2,5.6-3.1,8.7L110.4,166.5z" fill="#BBC2C6"/><path d="M118.9,175.2c-2,0-4-0.7-5.6-2.1c-1.6-1.4-2.6-3.3-2.9-5.2l-4.3,0.3c0.4,3.1,1.8,6,4.4,8.2   c2.5,2.2,5.6,3.2,8.7,3.1L118.9,175.2z" fill="#BBC2C6"/><g><circle cx="95.9" cy="174.1" fill="#BBC2C6" r="1.6"/><circle cx="102.5" cy="179.8" fill="#BBC2C6" r="1.6"/><circle cx="109.1" cy="185.5" fill="#BBC2C6" r="1.6"/><circle cx="115.7" cy="191.2" fill="#BBC2C6" r="1.6"/></g><g><circle cx="90.8" cy="180" fill="#BBC2C6" r="1.6"/><circle cx="97.4" cy="185.7" fill="#BBC2C6" r="1.6"/><circle cx="104" cy="191.4" fill="#BBC2C6" r="1.6"/><circle cx="110.6" cy="197.1" fill="#BBC2C6" r="1.6"/></g></g></svg>